<svg width="32" height="17" xmlns="http://www.w3.org/2000/svg">
    <g fill-rule="nonzero" fill="none">
        <path fill="#B3B4C0" d="M29.966 14.607H32V1.597h-2.034z"/>
        <path d="M31.487 1.042v13.754H.484l-.016-.084c-.001-.008-.154-.817-.222-2.283l-.01-.211c-.01-.24-.016-.48-.017-.72a22.635 22.635 0 0 1-.005-.472v-.21C.225 9.422.31 8.027.467 6.64 1.032 1.559 2.563.127 2.628.069l.03-.027H30.47a1.01 1.01 0 0 1 1.017 1" fill="#DFDFE5"/>
        <path d="M31.383 1.145v13.548H.57S.418 13.9.349 12.424l-.008-.21a19.248 19.248 0 0 1-.014-.507c-.007-.227-.01-.454-.01-.681v-.21C.324 9.659.391 8.265.571 6.65 1.137 1.55 2.699.146 2.699.146h27.666a1.01 1.01 0 0 1 1.018 1" fill="#F2F2F4"/>
        <path d="M6.927 3.457v4.225a.163.163 0 0 1-.075.138l-2.12 1.379a.125.125 0 0 1-.037.018L.968 10.49a.17.17 0 0 1-.154-.021.163.163 0 0 1-.07-.137C.776 9.128.857 7.925.99 6.727c.148-1.375.366-2.487.609-3.379l.014-.055H6.76c.094 0 .168.074.168.164M30.09 9.041H26.38c-.191 0-.347-.185-.347-.412V4.115c0-.226.156-.412.346-.412h3.71c.192 0 .348.186.348.413v4.512c0 .227-.156.412-.348.412m-16.275.001h-3.708c-.193 0-.348-.185-.348-.412V4.115c0-.226.155-.412.348-.412h3.708c.191 0 .348.186.348.413v4.512c0 .227-.157.412-.348.412m4.945.001h-2.27a.416.416 0 0 1-.418-.412V4.115c0-.226.187-.412.417-.412h2.27c.23 0 .418.186.418.413v4.512a.416.416 0 0 1-.417.412m4.98.001h-2.27a.416.416 0 0 1-.417-.412V4.115c0-.226.186-.412.417-.412h2.27c.23 0 .417.186.417.413v4.512c0 .11-.044.214-.122.291a.422.422 0 0 1-.295.121" fill="#B3B4C0"/>
        <path d="M31.383 11.817v.5H.327a40.866 40.866 0 0 1-.005-.5h31.06z" fill="#DBDE4A"/>
        <path fill="#4C3A8F" d="M31.383 12.818v.5H.349l-.008-.5z"/>
        <path fill="#B1ABDD" d="M.318 11.317h31.066v-.5H.318z"/>
        <path d="M8.79 15.018h.127V.144H8.79v14.874zm6.28 0h.128V2.628h-.128v12.39zm9.961 0h.129V2.628h-.129v12.39zm-4.98 0h.128V2.628h-.129v12.39z" fill="#CACACA"/>
        <path d="M30.457 2.674H8.524a.57.57 0 0 1-.542-.566c0-.3.238-.547.542-.565h21.932a.57.57 0 0 1 .575.565.57.57 0 0 1-.575.566" fill="#C40E1A"/>
        <path fill="#636363" d="M31.484 16.042H1.946L.343 14.767h31.142z"/>
        <path fill="#8F8F8F" d="M0 14.963h31.484v-.914H0z"/>
    </g>
</svg>
